<?xml version="1.0" standalone="no"?>
<!DOCTYPE svg PUBLIC "-//W3C//DTD SVG 20010904//EN"
 "http://www.w3.org/TR/2001/REC-SVG-20010904/DTD/svg10.dtd">
<svg version="1.0" xmlns="http://www.w3.org/2000/svg"
 width="50.000000pt" height="40.000000pt" viewBox="0 0 1307.000000 1012.000000"
 preserveAspectRatio="xMidYMid meet">

<g transform="translate(0.000000,1012.000000) scale(0.100000,-0.100000)"
fill="" stroke="none">
<path d="M6165 10085 c-263 -16 -500 -42 -685 -75 -30 -5 -95 -17 -145 -25
-49 -9 -108 -20 -130 -25 -22 -5 -74 -16 -115 -25 -109 -24 -373 -93 -460
-121 -41 -14 -97 -31 -125 -40 -27 -9 -59 -19 -70 -24 -11 -5 -47 -18 -81 -29
-319 -105 -777 -319 -1129 -526 -252 -148 -604 -393 -795 -553 -36 -30 -76
-63 -90 -75 -260 -216 -571 -530 -816 -822 -699 -836 -1203 -1908 -1388 -2960
-9 -49 -20 -112 -25 -140 -9 -46 -27 -180 -51 -365 -5 -41 -17 -211 -26 -378
-16 -283 -16 -322 0 -610 9 -169 22 -340 28 -380 l12 -72 563 0 c560 0 563 0
563 20 0 12 -6 78 -14 148 -36 322 -45 633 -26 892 14 178 39 422 50 485 5 28
16 93 25 145 30 172 99 475 135 585 103 316 142 426 184 520 8 17 31 71 52
120 56 133 211 434 299 581 187 312 376 568 613 834 471 530 1059 971 1697
1275 177 84 156 75 320 140 827 331 1727 449 2630 346 169 -20 453 -70 575
-101 19 -5 71 -18 115 -29 44 -11 106 -27 138 -35 65 -18 396 -127 442 -146
17 -7 39 -16 50 -21 11 -4 47 -19 80 -32 157 -63 467 -214 610 -297 50 -29
109 -63 133 -77 80 -45 340 -222 449 -304 557 -423 1015 -931 1377 -1527 94
-156 235 -425 295 -562 13 -30 35 -79 48 -109 13 -30 30 -70 37 -90 8 -20 31
-81 51 -136 52 -139 100 -288 139 -430 52 -189 77 -296 101 -430 9 -49 20
-110 25 -135 11 -53 24 -148 47 -355 25 -224 25 -820 -1 -1045 -10 -91 -19
-178 -20 -195 l-1 -30 562 -3 562 -2 6 21 c10 31 22 190 36 470 16 336 0 725
-45 1084 -26 203 -44 317 -66 420 -5 22 -16 76 -26 120 -55 260 -136 553 -209
755 -15 41 -31 89 -36 105 -5 17 -13 39 -18 50 -5 11 -17 40 -26 65 -10 25
-24 59 -31 77 -8 17 -14 34 -14 37 0 3 -11 30 -25 60 -14 30 -25 57 -25 60 0
21 -219 465 -288 586 -30 52 -66 114 -78 137 -132 234 -419 639 -641 901 -685
809 -1578 1456 -2533 1834 -96 38 -184 73 -195 78 -25 12 -299 101 -380 125
-33 9 -71 21 -85 26 -14 5 -43 13 -65 18 -22 5 -87 21 -145 36 -223 55 -471
102 -680 129 -222 29 -296 36 -446 46 -273 18 -571 19 -799 5z m410 -277 c3
-13 6 -138 8 -278 2 -239 1 -257 -18 -285 -44 -67 -92 -94 -188 -106 -135 -17
-241 20 -284 99 -11 20 -25 66 -31 102 -13 74 -32 438 -24 458 3 9 25 12 81
10 l76 -3 7 -105 c3 -58 9 -163 13 -234 7 -125 8 -131 35 -158 31 -31 87 -38
134 -17 46 22 50 49 36 289 -7 121 -10 226 -6 235 4 12 22 15 80 15 70 0 76
-2 81 -22z m610 -18 c39 -5 90 -12 115 -15 25 -3 65 -16 90 -29 124 -63 124
-268 0 -333 -24 -13 -45 -25 -47 -27 -2 -2 11 -28 30 -57 48 -76 119 -228 112
-240 -10 -16 -168 1 -180 20 -5 8 -35 62 -65 118 -72 132 -90 153 -135 153
-35 0 -35 -1 -35 -42 0 -57 -21 -201 -31 -212 -5 -6 -36 -4 -79 3 -54 10 -70
17 -70 29 1 10 7 89 16 177 8 88 18 207 23 265 9 102 18 171 27 198 4 14 77
12 229 -8z m-1500 -47 c4 -10 11 -45 16 -78 8 -56 27 -188 49 -330 5 -33 14
-97 21 -143 7 -50 9 -86 3 -92 -5 -5 -40 -10 -79 -12 -81 -4 -75 -13 -98 150
-9 57 -17 106 -20 108 -6 6 -190 -27 -199 -35 -7 -7 0 -70 23 -196 13 -71 6
-79 -77 -90 -64 -8 -84 3 -84 47 0 16 -4 48 -9 71 -5 23 -16 92 -25 152 -21
149 -24 166 -40 275 -18 116 -15 122 78 128 l64 4 7 -33 c5 -19 13 -72 19
-119 l12 -85 34 3 c19 1 68 7 108 14 l72 12 -5 36 c-3 19 -10 60 -16 90 -6 30
-9 71 -7 90 3 32 6 35 43 41 77 12 103 10 110 -8z m2450 -117 c67 -17 104 -38
141 -78 44 -46 66 -93 68 -147 l1 -46 -74 -3 c-79 -3 -91 3 -91 45 0 38 -46
81 -95 89 -69 10 -113 -17 -150 -91 -25 -52 -29 -71 -30 -147 0 -82 1 -88 29
-117 16 -17 44 -34 62 -37 41 -8 95 10 114 37 46 67 41 65 98 34 28 -15 59
-36 67 -46 15 -16 14 -20 -8 -57 -30 -46 -89 -94 -136 -110 -51 -18 -140 -14
-199 7 -156 57 -231 214 -188 390 22 90 48 143 99 198 76 82 177 110 292 79z
m-3376 -125 c37 -19 101 -83 101 -101 0 -13 -41 -50 -56 -50 -6 0 -17 -7 -24
-15 -15 -18 -66 -20 -77 -2 -14 22 -56 47 -81 47 -38 0 -93 -31 -113 -64 -41
-67 -7 -228 63 -298 31 -31 45 -38 78 -38 79 0 118 37 129 124 l6 51 71 3 c92
4 100 -5 85 -90 -6 -34 -23 -83 -39 -107 -47 -77 -150 -131 -250 -131 -125 0
-218 62 -280 188 -36 75 -37 79 -37 192 0 107 2 118 27 161 46 78 117 130 208
150 53 12 145 2 189 -20z m4061 -119 c60 -30 65 -43 35 -106 -22 -48 -55 -136
-55 -146 0 -11 143 -80 173 -83 16 -2 27 16 59 93 21 52 41 101 45 108 6 14
36 16 61 2 9 -5 34 -17 55 -26 20 -9 37 -20 37 -26 0 -5 -32 -86 -70 -181 -39
-95 -91 -223 -117 -285 -64 -157 -57 -150 -133 -122 -34 13 -64 30 -67 38 -3
8 15 65 40 128 49 119 53 134 37 134 -9 0 -104 40 -142 61 -10 5 -23 9 -30 9
-14 0 -17 -6 -69 -135 -47 -118 -50 -120 -126 -85 -35 16 -63 35 -63 43 0 12
35 107 60 162 5 11 34 83 65 160 32 77 63 154 71 172 8 17 14 35 14 40 0 17
40 73 52 73 7 0 38 -13 68 -28z m-5350 -413 c0 -5 10 -26 23 -47 13 -20 43
-73 66 -117 24 -44 66 -122 94 -172 l50 -93 51 29 c28 16 83 45 121 66 39 21
75 42 82 47 7 5 16 7 22 4 13 -8 61 -96 61 -111 0 -7 -28 -29 -62 -48 -35 -19
-81 -44 -103 -57 -22 -12 -85 -48 -139 -78 l-100 -56 -20 27 c-11 15 -38 62
-61 104 -23 43 -56 105 -74 138 -143 258 -161 294 -161 309 0 22 121 88 137
74 7 -6 13 -14 13 -19z m6548 -224 c76 -41 136 -98 165 -158 76 -156 -12 -388
-184 -481 -42 -23 -62 -28 -128 -28 -64 0 -87 4 -137 28 -128 60 -210 185
-202 310 7 115 112 279 211 331 77 40 199 40 275 -2z m-6874 -330 c157 -97
286 -183 286 -191 0 -17 -101 -94 -123 -94 -9 0 -40 14 -68 32 -41 25 -56 29
-75 22 -40 -15 -164 -117 -164 -135 0 -9 7 -36 15 -59 24 -69 20 -81 -46 -129
-34 -25 -64 -40 -69 -35 -7 8 -53 164 -109 374 -11 41 -34 124 -51 184 -17 59
-28 116 -25 125 8 24 107 93 127 88 9 -3 145 -84 302 -182z m7532 -207 c147
-135 244 -232 244 -243 0 -6 -20 -30 -44 -54 l-44 -43 -113 102 -112 103 -34
-38 c-18 -20 -33 -41 -33 -45 0 -4 38 -44 85 -88 47 -45 85 -89 85 -99 0 -28
-74 -97 -93 -87 -8 5 -50 42 -92 82 -43 39 -83 72 -89 72 -11 0 -123 -119
-154 -162 -20 -27 -34 -23 -91 31 -36 33 -50 54 -45 63 6 10 142 166 164 188
3 3 46 50 95 105 155 171 168 185 181 185 6 0 47 -33 90 -72z m-8137 -291
c116 -130 211 -241 211 -246 0 -14 -93 -101 -108 -101 -17 0 1 -19 -240 253
-111 125 -202 231 -202 236 0 17 95 101 112 99 9 -2 111 -110 227 -241z m-493
-122 l46 -44 -41 -49 c-22 -27 -47 -55 -56 -62 -24 -20 -18 -34 43 -91 31 -30
114 -108 185 -173 70 -66 127 -122 127 -126 0 -13 -91 -110 -103 -110 -7 0
-30 17 -52 38 -55 51 -274 253 -304 280 -14 12 -28 22 -32 22 -4 0 -32 -27
-61 -60 -29 -33 -59 -60 -67 -60 -37 0 -111 99 -83 112 4 2 63 66 132 143 175
196 202 225 212 225 4 0 29 -20 54 -45z m9369 -419 c89 -42 153 -121 179 -223
13 -50 14 -66 2 -110 -14 -51 -49 -113 -65 -113 -14 0 -100 70 -110 89 -7 13
-6 24 4 37 8 11 15 39 15 63 0 57 -33 102 -88 120 -35 12 -46 12 -84 -3 -61
-25 -144 -90 -173 -136 -44 -70 -23 -148 48 -183 33 -17 44 -17 88 -7 28 7 54
9 58 4 14 -17 44 -121 39 -136 -3 -8 -24 -20 -46 -26 -107 -32 -215 4 -287 96
-125 158 -91 344 85 473 77 56 138 78 220 78 48 1 78 -5 115 -23z m-9864 -287
c62 -21 65 -30 30 -92 -40 -70 -54 -82 -80 -68 -28 16 -36 14 -70 -14 -30 -26
-61 -77 -61 -100 0 -21 28 -37 50 -30 12 4 49 32 83 62 115 103 176 129 257
112 56 -12 120 -62 144 -113 9 -19 16 -59 16 -93 0 -97 -73 -223 -164 -281
-34 -22 -52 -27 -112 -27 -44 0 -82 6 -100 15 -50 26 -51 32 -2 112 l29 46 53
-5 c64 -7 88 5 121 57 60 94 -5 162 -87 92 -18 -16 -46 -40 -62 -53 -16 -13
-34 -29 -41 -36 -22 -22 -92 -54 -129 -60 -64 -10 -144 34 -178 100 -47 90
-12 214 88 314 68 68 137 88 215 62z m10369 -421 l32 -62 -25 -20 c-14 -12
-43 -30 -64 -41 -21 -11 -57 -31 -80 -44 l-42 -25 46 -86 c25 -47 50 -89 54
-94 4 -5 27 3 51 17 24 14 70 40 103 58 l59 32 22 -28 c12 -16 30 -46 40 -67
15 -34 15 -41 3 -53 -8 -8 -86 -54 -174 -103 -88 -48 -187 -103 -220 -122 -33
-18 -79 -44 -102 -57 -23 -12 -50 -23 -60 -23 -21 0 -77 97 -72 124 2 10 29
31 59 48 30 17 75 41 100 55 25 14 49 29 54 34 11 10 -71 178 -91 186 -6 2
-56 -21 -110 -52 -54 -31 -106 -57 -117 -58 -19 -2 -66 64 -78 111 -7 25 -3
28 92 79 30 17 114 63 185 103 72 40 150 84 175 98 121 68 120 68 160 -10z
m-10855 -260 c28 -14 45 -29 45 -40 0 -9 -29 -76 -65 -149 -36 -72 -65 -138
-65 -146 0 -8 19 -22 42 -33 l42 -19 68 140 c38 76 74 139 81 139 24 -1 102
-47 105 -62 2 -8 -24 -72 -58 -142 -33 -70 -60 -131 -60 -135 0 -9 93 -61 109
-61 5 0 42 68 82 150 82 168 85 171 160 125 33 -22 39 -30 33 -48 -17 -53
-206 -428 -218 -433 -17 -6 -576 274 -583 292 -3 7 11 46 30 86 55 115 162
332 170 346 11 17 30 15 82 -10z m11266 -593 c83 -230 91 -261 92 -326 1 -58
-3 -71 -26 -102 -45 -59 -92 -82 -168 -82 -60 0 -71 3 -107 32 l-41 33 -47
-72 c-64 -96 -143 -190 -156 -186 -6 2 -24 39 -39 83 l-28 78 74 102 c94 131
108 159 100 196 -4 16 -10 31 -14 34 -5 2 -59 -13 -122 -35 -89 -31 -117 -37
-126 -27 -17 17 -52 123 -44 134 3 6 47 25 96 42 50 18 140 51 200 73 61 22
121 44 135 48 14 5 54 20 90 34 94 36 98 34 131 -59z m-11106 -340 c27 -7 51
-19 55 -25 3 -5 -22 -99 -57 -208 -79 -244 -79 -242 -100 -242 -10 0 -148 45
-308 98 l-290 98 2 40 c2 51 29 114 48 114 9 0 116 -34 238 -75 123 -41 228
-75 234 -75 6 0 32 65 57 145 28 86 53 145 60 145 7 0 35 -7 61 -15z m11354
-450 c7 -15 14 -51 15 -78 1 -49 0 -51 -29 -58 -16 -4 -75 -19 -130 -34 -55
-14 -140 -37 -190 -50 -49 -13 -126 -33 -169 -44 -114 -30 -111 -31 -131 43
-10 36 -15 71 -12 79 3 8 25 20 49 25 24 6 86 22 138 36 52 13 149 39 215 56
66 17 140 37 165 44 57 17 62 16 79 -19z m-12048 -232 c9 -9 -6 -136 -31 -273
-5 -30 -6 -57 -2 -61 4 -4 27 -10 52 -14 l45 -7 15 99 c7 54 16 123 19 153 l6
55 55 3 c81 4 91 -7 80 -88 -25 -186 -31 -233 -26 -237 6 -7 120 -21 126 -16
5 4 25 143 36 248 9 81 18 95 58 95 47 0 96 -19 96 -37 0 -14 -10 -85 -40
-283 -5 -36 -12 -87 -15 -115 -12 -102 -10 -98 -68 -92 -29 4 -99 14 -157 22
-58 9 -138 20 -178 25 -40 5 -98 14 -129 20 -31 5 -71 10 -89 10 -18 0 -36 5
-40 12 -13 20 -3 119 37 383 20 130 12 118 81 112 33 -3 64 -9 69 -14z m11735
-323 c8 -25 14 -60 14 -77 0 -28 -5 -35 -34 -47 -46 -19 -66 -52 -66 -106 0
-62 30 -110 69 -110 16 0 33 6 38 13 11 13 29 96 38 170 17 130 89 207 196
207 126 0 204 -107 204 -280 0 -61 -5 -83 -25 -119 -31 -56 -86 -100 -132
-107 -34 -6 -36 -4 -47 27 -22 69 -16 139 11 139 28 0 48 34 48 82 0 55 -22
98 -51 98 -24 0 -34 -25 -49 -120 -25 -164 -57 -226 -135 -261 -85 -39 -183
-16 -244 58 -44 54 -63 120 -63 222 0 95 17 144 65 190 31 28 117 72 136 68 8
-1 20 -22 27 -47z m-11762 -498 c2 -4 7 -39 11 -77 l7 -70 -33 -15 c-39 -17
-79 -72 -79 -107 0 -43 38 -101 80 -123 52 -27 217 -29 260 -4 57 34 78 116
43 175 -9 16 -36 38 -60 49 -45 21 -50 32 -32 77 44 106 44 107 108 71 58 -33
97 -72 123 -120 18 -36 22 -58 22 -133 0 -60 -6 -102 -16 -125 -27 -59 -95
-127 -154 -155 -52 -25 -64 -26 -173 -23 -104 3 -122 6 -171 31 -76 39 -108
72 -141 144 -34 73 -39 170 -13 245 19 56 74 122 123 148 37 20 86 26 95 12z
m12250 -250 c3 -5 6 -125 7 -266 1 -210 -1 -260 -12 -267 -8 -5 -35 -9 -61 -9
-60 0 -68 14 -68 114 l0 76 -255 0 c-241 0 -255 1 -265 19 -15 29 -13 126 3
140 9 7 99 12 263 13 l249 3 3 80 c1 44 4 86 7 93 5 14 120 17 129 4z"/>
<path d="M7096 9590 c-4 -34 -6 -63 -4 -65 3 -3 152 -8 184 -6 14 1 26 12 34
31 10 25 10 34 -3 54 -17 26 -35 31 -138 41 l-66 6 -7 -61z"/>
<path d="M9824 8601 c-41 -25 -98 -104 -118 -164 -27 -80 7 -161 81 -192 68
-28 130 -10 185 54 105 123 104 251 -4 307 -38 20 -107 17 -144 -5z"/>
<path d="M2917 8323 c22 -72 35 -103 42 -103 3 0 24 15 45 34 l40 33 -59 37
c-85 55 -85 55 -68 -1z"/>
<path d="M12153 5682 c-25 -10 -43 -23 -43 -32 0 -17 28 -98 51 -145 16 -33
53 -44 89 -25 22 12 27 60 11 102 -5 13 -17 44 -26 71 -18 51 -20 52 -82 29z"/>
<path d="M6347 8793 c-9 -8 -9 -56 -1 -77 5 -12 21 -16 74 -16 53 0 69 -4 74
-16 3 -9 6 -108 6 -220 l0 -205 53 3 52 3 3 218 2 217 70 0 c66 0 70 1 76 25
3 14 3 36 0 50 l-6 25 -199 0 c-109 0 -201 -3 -204 -7z"/>
<path d="M5951 8779 c-60 -11 -111 -55 -129 -107 -12 -36 -12 -48 0 -84 22
-66 67 -95 181 -117 109 -21 127 -31 127 -71 0 -41 -41 -70 -98 -70 -40 0 -49
5 -82 40 -38 41 -59 47 -104 30 -22 -8 -24 -12 -16 -39 31 -110 145 -156 285
-115 90 26 137 99 121 192 -12 78 -61 113 -194 141 -97 19 -122 32 -122 62 0
28 39 49 91 49 46 0 79 -20 79 -50 0 -9 12 -11 52 -6 29 4 54 9 57 11 10 10
-13 59 -42 91 -45 50 -107 63 -206 43z"/>
<path d="M6881 8613 c-7 -93 -17 -208 -21 -258 -5 -49 -6 -93 -2 -96 4 -4 27
-9 51 -11 42 -3 45 -1 52 27 4 17 13 104 19 195 6 91 14 198 17 238 l6 72 -55
0 -54 0 -13 -167z"/>
<path d="M5580 8721 c-34 -6 -35 -7 -33 -51 2 -25 7 -70 13 -100 5 -30 22
-127 36 -215 14 -88 29 -163 32 -167 4 -4 29 -2 55 4 45 9 49 12 44 37 -2 14
-14 87 -27 161 -63 379 -50 344 -120 331z"/>
<path d="M7272 8618 c-185 -298 -222 -362 -213 -371 5 -5 30 -12 54 -14 l46
-5 31 51 c18 28 36 51 40 51 5 0 39 -7 77 -15 37 -9 77 -17 89 -20 17 -4 24
-17 34 -65 14 -65 22 -74 84 -83 l39 -6 -6 47 c-4 26 -13 83 -21 127 -9 44
-27 142 -40 219 -35 193 -26 177 -107 191 l-37 7 -70 -114z m107 -85 c5 -21
12 -60 15 -87 l6 -49 -53 7 c-28 4 -56 11 -61 16 -7 7 69 150 80 150 2 0 7
-17 13 -37z"/>
<path d="M5120 8609 c-58 -16 -117 -31 -132 -35 -16 -4 -28 -12 -28 -18 0 -6
28 -122 62 -258 58 -233 63 -248 84 -248 13 0 36 5 51 12 15 7 29 12 30 13 1
0 -9 45 -23 100 -23 94 -23 101 -7 112 9 7 27 13 39 13 21 0 104 -58 133 -94
8 -9 31 -30 52 -46 37 -30 37 -30 91 -16 30 7 53 19 53 26 0 13 -143 145 -181
166 -18 11 -17 13 13 38 73 62 62 196 -20 246 -42 26 -89 24 -217 -11z m151
-82 c23 -17 31 -50 20 -79 -10 -26 -61 -48 -142 -63 l-35 -7 -14 56 c-7 31
-10 59 -6 64 10 9 114 39 141 40 11 1 27 -4 36 -11z"/>
<path d="M7772 8553 c-80 -268 -124 -435 -116 -443 5 -5 27 -12 49 -15 l41 -7
33 119 c39 142 51 177 61 166 7 -7 35 -108 78 -281 17 -68 37 -87 97 -94 32
-3 25 -18 80 177 8 28 32 112 53 188 l39 138 -24 10 c-13 5 -35 12 -48 15 -26
6 -19 25 -81 -193 -16 -57 -32 -103 -36 -103 -9 0 -21 39 -62 200 -43 170 -40
164 -80 178 -57 21 -63 17 -84 -55z"/>
<path d="M4683 8465 c-18 -8 -33 -20 -33 -28 0 -8 14 -47 30 -87 17 -40 30
-79 30 -87 0 -7 -21 -23 -47 -34 -27 -11 -63 -28 -81 -36 -42 -20 -48 -14 -87
86 -16 40 -34 75 -40 77 -12 5 -81 -21 -89 -34 -2 -4 16 -57 40 -118 25 -60
67 -161 93 -224 67 -164 59 -155 109 -135 52 21 53 31 7 142 -20 47 -34 90
-33 95 5 13 159 77 173 72 5 -3 26 -46 46 -97 22 -57 42 -93 52 -95 19 -4 87
27 87 39 0 7 -110 278 -183 452 -13 30 -27 33 -74 12z"/>
<path d="M8392 8373 c-48 -23 -74 -66 -75 -121 -1 -66 23 -103 108 -173 41
-34 77 -70 80 -80 10 -30 -3 -56 -36 -69 -25 -11 -36 -10 -69 5 -54 24 -72 47
-77 99 -5 39 -9 46 -36 55 -66 24 -75 13 -68 -78 5 -73 62 -135 156 -170 94
-35 160 -22 209 42 57 75 48 155 -26 224 -126 118 -140 133 -136 149 14 70
158 18 158 -58 0 -24 6 -32 43 -47 29 -13 46 -15 55 -9 17 14 15 83 -3 117
-22 44 -89 96 -146 114 -64 21 -95 21 -137 0z"/>
<path d="M4034 8166 c-46 -20 -102 -74 -126 -120 -61 -117 8 -313 136 -387
147 -84 336 27 336 196 0 64 -9 72 -67 58 -38 -9 -38 -9 -43 -66 -7 -78 -40
-112 -110 -112 -60 0 -96 30 -140 119 -49 97 -36 177 34 210 43 20 57 20 101
-1 l35 -17 35 34 c19 19 35 37 35 40 0 3 -19 18 -42 33 -33 21 -54 27 -98 27
-30 -1 -69 -7 -86 -14z"/>
<path d="M8883 8118 c-16 -29 -73 -129 -126 -221 -53 -92 -97 -172 -97 -178 0
-10 59 -49 75 -49 6 0 40 51 75 113 68 120 100 170 106 165 2 -2 -17 -73 -41
-158 -25 -85 -45 -162 -45 -170 0 -14 60 -60 78 -60 5 0 62 54 127 120 65 66
121 118 123 115 3 -2 -27 -60 -65 -127 -39 -68 -75 -133 -82 -145 -10 -20 -7
-25 26 -48 21 -14 40 -25 44 -25 3 0 32 46 64 103 32 56 89 154 127 218 37 64
68 123 68 130 0 13 -111 89 -129 89 -4 0 -58 -53 -121 -117 -62 -64 -115 -112
-117 -106 -3 7 14 77 36 157 23 80 41 151 41 158 0 12 -112 88 -130 88 -5 0
-22 -24 -37 -52z"/>
<path d="M6160 8020 c-508 -55 -796 -121 -1215 -277 -131 -49 -157 -60 -320
-136 -338 -159 -728 -414 -1019 -668 -92 -81 -344 -333 -425 -425 -84 -97
-253 -313 -311 -399 -187 -277 -298 -482 -451 -830 -36 -82 -121 -322 -149
-420 -95 -333 -141 -585 -170 -930 -14 -159 -8 -722 9 -820 5 -33 15 -96 21
-140 6 -44 13 -92 16 -106 l5 -26 1095 1 1096 0 -5 31 c-3 16 -12 62 -22 100
-39 159 -54 314 -55 541 0 287 18 416 100 709 73 259 247 583 443 823 29 35
264 270 299 299 297 243 656 413 1003 477 184 34 239 39 415 39 201 0 380 -21
540 -63 87 -23 246 -74 255 -81 5 -5 16 -9 25 -9 25 0 299 -141 395 -204 176
-115 390 -305 504 -446 20 -25 44 -54 54 -65 21 -23 157 -222 157 -230 0 -2
16 -29 35 -60 72 -111 191 -393 224 -530 5 -22 19 -76 30 -120 12 -44 21 -92
21 -107 0 -15 4 -38 9 -52 6 -13 16 -111 22 -216 10 -152 10 -224 0 -353 -7
-89 -16 -180 -21 -202 -5 -22 -19 -83 -31 -135 -11 -52 -22 -106 -22 -120 l-2
-25 1093 -1 1092 -1 10 36 c24 94 60 512 60 713 0 200 -30 566 -60 718 -4 25
-16 86 -25 135 -9 50 -20 106 -25 125 -5 19 -16 67 -25 105 -19 79 -60 220
-80 280 -57 164 -90 256 -106 292 -11 23 -19 44 -19 47 0 18 -157 343 -223
461 -241 435 -586 859 -962 1183 -55 48 -102 90 -105 93 -17 20 -275 209 -371
271 -243 159 -549 321 -754 399 -27 11 -59 23 -70 28 -59 25 -90 36 -195 71
-341 112 -548 158 -955 211 -107 14 -728 21 -835 9z m290 -126 c62 -13 127
-106 98 -141 -6 -7 -30 -13 -54 -13 -37 0 -45 4 -56 28 -9 18 -22 28 -42 30
-44 5 -76 -6 -76 -27 0 -20 23 -31 105 -51 76 -19 115 -47 137 -98 17 -39 18
-50 8 -87 -7 -24 -24 -55 -39 -69 -30 -29 -99 -56 -142 -56 -86 0 -172 59
-185 126 -8 43 -1 51 51 59 38 6 41 5 60 -32 18 -35 24 -38 68 -41 54 -4 77 9
77 43 0 24 -24 38 -90 51 -60 12 -117 41 -139 72 -24 34 -28 96 -9 136 26 60
126 90 228 70z m405 -9 c183 -10 189 -12 176 -76 l-7 -34 -59 0 c-58 0 -60 -1
-66 -30 -4 -16 -7 -59 -8 -95 -1 -36 -7 -103 -14 -150 l-13 -85 -40 -3 c-25
-2 -45 2 -51 10 -9 12 -3 206 11 321 5 43 3 45 -70 56 -48 7 -49 7 -46 41 4
56 8 61 44 56 18 -3 83 -8 143 -11z m-781 -52 c4 -21 10 -76 16 -123 5 -47 14
-129 20 -183 7 -54 10 -104 7 -111 -7 -18 -85 -25 -98 -10 -15 18 -62 434 -51
446 9 8 40 15 74 17 23 1 27 -4 32 -36z m1139 5 c11 -5 16 -16 13 -26 -5 -16
-32 -230 -42 -337 -9 -95 -10 -95 -58 -95 -54 0 -71 18 -62 63 7 32 34 245 43
342 3 28 10 56 16 63 11 13 55 9 90 -10z m-1416 -43 c30 -20 53 -71 53 -119 0
-31 -7 -50 -28 -76 l-29 -34 69 -65 c105 -99 106 -110 11 -125 -42 -6 -43 -5
-115 64 -59 57 -79 70 -105 70 -18 0 -33 -3 -33 -7 0 -5 7 -40 16 -79 10 -39
15 -78 11 -86 -3 -8 -24 -20 -46 -25 -48 -13 -57 -6 -70 58 -28 134 -41 194
-62 282 -19 82 -20 100 -9 107 12 7 153 42 220 53 36 7 91 -2 117 -18z m1857
-54 c11 -9 10 -23 -6 -79 -11 -37 -23 -80 -28 -97 -4 -16 -15 -57 -25 -90 -28
-99 -32 -92 75 -121 36 -9 73 -21 83 -26 20 -10 23 -56 4 -82 -12 -16 -18 -17
-48 -7 -19 6 -87 27 -151 47 -65 19 -118 38 -118 42 1 12 17 71 60 222 23 80
44 154 47 165 12 47 12 48 54 42 22 -3 46 -10 53 -16z m-2314 -27 c0 -9 -14
-46 -31 -82 -65 -138 -63 -127 -26 -159 18 -15 53 -44 77 -63 25 -19 65 -54
90 -77 l45 -42 -48 -20 c-76 -33 -66 -37 -189 76 -26 24 -52 43 -57 43 -18 0
-41 -68 -32 -93 24 -62 32 -100 25 -107 -14 -12 -83 -32 -92 -26 -5 3 -17 31
-27 63 -10 32 -21 67 -26 78 -4 11 -22 67 -39 125 -18 58 -36 117 -42 132 -5
15 -7 31 -4 37 9 14 74 34 90 28 8 -3 24 -38 36 -77 27 -86 31 -84 80 38 38
94 45 101 109 123 60 22 61 22 61 3z m2836 -150 l34 -16 0 -249 c0 -144 -4
-249 -9 -249 -5 0 -30 9 -55 20 l-46 19 0 55 0 54 -47 18 c-27 9 -52 21 -57
26 -19 16 -42 8 -76 -27 -36 -37 -49 -41 -78 -26 -9 5 -25 12 -34 15 -23 7
-23 27 0 52 97 107 269 299 277 310 13 19 49 18 91 -2z m-3430 -301 c51 -101
95 -192 99 -203 5 -15 -1 -24 -27 -40 -18 -11 -41 -20 -50 -20 -12 0 -46 59
-118 202 -55 110 -97 205 -93 209 16 16 68 39 82 37 7 -2 55 -85 107 -185z
m3773 136 c138 -74 200 -110 206 -119 7 -11 -24 -70 -40 -76 -7 -3 -32 6 -55
21 -23 14 -46 25 -52 23 -5 -2 -45 -71 -88 -153 -43 -83 -85 -151 -93 -153
-17 -4 -72 22 -82 38 -3 5 30 80 75 165 44 86 78 160 75 165 -4 6 -24 19 -46
31 -22 11 -42 26 -45 34 -7 16 22 75 37 75 6 0 54 -23 108 -51z m-4019 -71
c11 -18 20 -38 20 -44 0 -5 -21 -22 -47 -36 -33 -18 -47 -32 -46 -44 1 -11 30
-71 65 -134 89 -163 91 -167 85 -182 -2 -7 -22 -22 -42 -33 -46 -24 -38 -33
-136 150 -39 72 -74 134 -79 139 -6 6 -29 -1 -60 -18 -27 -15 -54 -25 -59 -21
-6 3 -17 20 -25 37 -15 29 -15 33 0 50 10 10 20 18 24 18 4 0 65 34 136 75 71
41 132 75 137 75 4 0 16 -15 27 -32z m4367 -139 c22 -14 33 -28 30 -38 -2 -9
-30 -58 -63 -110 -32 -51 -64 -100 -69 -109 -6 -10 -32 -50 -58 -90 l-47 -72
-29 15 c-16 8 -36 22 -45 30 -18 18 -29 -4 119 234 55 88 106 160 114 161 7 0
29 -10 48 -21z m-2563 -159 c-1 -59 -14 -229 -30 -402 -7 -74 -6 -72 -86 -83
-45 -7 -48 -6 -67 26 -12 19 -21 42 -21 52 0 9 -4 17 -10 17 -5 0 -10 6 -10
14 0 8 -7 27 -15 43 -8 15 -22 47 -31 70 -10 24 -20 40 -23 37 -3 -3 -9 -42
-13 -87 -12 -136 -20 -191 -30 -204 -6 -8 -34 -13 -68 -13 -62 0 -69 5 -90 60
-7 19 -24 59 -37 88 -12 29 -23 56 -23 60 -1 4 -9 25 -20 47 -11 22 -19 43
-20 47 0 4 -11 32 -25 62 -14 30 -25 61 -25 68 0 8 -5 19 -12 26 -20 20 11 40
71 44 52 3 56 2 70 -27 26 -54 28 -60 35 -93 4 -17 12 -34 17 -37 5 -4 9 -14
9 -24 0 -10 7 -24 15 -31 13 -11 15 -8 15 21 0 19 5 75 12 125 12 89 13 92 43
103 17 6 50 11 73 11 41 0 41 0 71 -64 16 -35 38 -87 48 -115 10 -28 21 -51
24 -51 4 0 10 39 13 88 9 147 15 172 40 172 11 0 28 5 36 10 8 6 26 9 40 8 24
-3 25 -6 24 -68z m471 61 l60 -6 3 -57 3 -58 -131 0 -130 0 0 -35 0 -35 113 0
c125 0 137 -5 137 -58 0 -68 -9 -73 -123 -72 -56 1 -108 1 -114 1 -8 -1 -13
-16 -13 -39 l0 -39 130 -13 130 -13 0 -54 0 -53 -197 2 -198 3 -3 254 c-2 179
1 258 9 267 12 15 205 18 324 5z m718 -111 c26 -6 47 -16 47 -21 0 -5 6 -9 14
-9 17 0 69 -58 93 -103 19 -37 23 -174 5 -210 -5 -12 -17 -38 -26 -57 -34 -75
-92 -118 -172 -129 -83 -12 -152 4 -209 47 -69 52 -95 107 -95 196 0 101 31
176 96 240 63 61 133 74 247 46z m-1945 -42 c5 -7 13 -33 17 -58 4 -24 11 -51
15 -60 12 -22 40 -120 40 -136 0 -8 4 -22 9 -32 5 -9 17 -46 26 -82 9 -36 21
-75 25 -87 11 -27 -7 -44 -66 -59 -51 -13 -67 -2 -79 56 -4 19 -17 69 -30 110
-13 41 -31 102 -40 135 -27 94 -37 128 -47 154 -11 28 -2 40 44 57 45 16 74
16 86 2z m-1619 -34 c41 -8 124 -83 159 -143 21 -37 27 -58 27 -106 -1 -70
-20 -112 -74 -163 -46 -44 -80 -61 -136 -68 -115 -16 -264 132 -265 263 0 36
29 109 56 139 28 30 86 71 109 77 31 7 89 8 124 1z m5360 -24 c75 -38 141
-138 141 -214 0 -62 -68 -170 -136 -215 -41 -27 -57 -31 -111 -31 -75 0 -126
22 -168 72 -68 80 -81 162 -40 244 71 140 203 201 314 144z m-3992 -12 c4 -7
10 -33 14 -58 4 -25 13 -67 19 -95 11 -49 30 -144 55 -280 7 -38 10 -74 8 -78
-3 -5 -29 -20 -59 -34 l-54 -26 -33 35 c-17 19 -54 64 -82 99 -54 69 -85 105
-85 98 1 -2 8 -44 16 -94 9 -49 18 -117 21 -151 l5 -61 -51 -21 c-65 -28 -77
-28 -98 6 -10 15 -20 29 -23 32 -4 3 -26 32 -51 65 -24 33 -47 62 -50 65 -8 7
-130 169 -151 202 -20 30 -17 34 51 67 53 25 51 25 123 -73 29 -39 55 -73 59
-76 3 -3 11 -14 17 -25 10 -18 11 -16 12 14 0 19 -4 48 -9 65 -23 75 -32 157
-20 172 14 17 95 54 118 54 9 0 28 -17 43 -38 28 -40 69 -90 106 -131 l23 -26
-5 30 c-2 17 -12 64 -22 105 -25 109 -24 120 12 140 27 16 51 25 76 29 4 0 10
-5 15 -11z m2620 -40 c18 -7 33 -16 33 -20 0 -4 7 -8 15 -8 24 0 18 -32 -21
-117 -20 -43 -42 -91 -49 -108 -8 -16 -25 -56 -39 -88 -15 -32 -24 -62 -21
-67 3 -5 19 -11 35 -15 17 -4 30 -11 30 -16 0 -5 7 -9 14 -9 15 0 104 -44 119
-59 10 -10 -16 -83 -36 -95 -11 -7 -23 -6 -39 1 -13 7 -45 22 -73 34 -27 12
-79 35 -115 51 -36 17 -75 34 -87 39 -24 9 -30 37 -13 67 5 9 19 40 31 67 20
45 41 93 86 195 9 19 24 53 34 74 11 22 19 45 19 51 0 14 21 35 34 35 5 0 25
-5 43 -12z m-4348 -334 c159 -145 221 -205 221 -214 0 -13 -50 -70 -62 -70 -5
0 -35 24 -66 53 -31 28 -70 63 -86 77 l-29 25 28 -45 c15 -25 45 -71 67 -102
21 -31 38 -60 38 -63 0 -14 -53 -75 -66 -75 -7 0 -57 23 -110 52 -101 53 -110
51 -40 -11 22 -20 55 -50 74 -66 l33 -30 -28 -37 c-15 -21 -33 -37 -39 -38 -6
0 -69 53 -140 118 -71 65 -144 131 -161 147 -18 15 -33 35 -33 42 0 8 16 31
35 51 19 20 35 40 35 45 0 18 48 3 141 -44 55 -28 102 -49 104 -47 2 2 -25 50
-61 107 -38 61 -62 110 -59 120 5 16 82 101 92 101 3 0 53 -43 112 -96z m6200
-94 c74 -103 3 -231 -120 -217 l-47 6 -6 -52 c-4 -29 -11 -65 -15 -82 -5 -16
-12 -42 -15 -57 -8 -37 -18 -35 -60 10 -40 41 -42 58 -21 147 19 78 19 129 0
145 -13 11 -26 3 -81 -50 l-65 -63 -35 34 c-19 18 -34 38 -34 44 0 7 73 83
161 170 l162 159 72 -76 c41 -42 87 -95 104 -118z m-1266 121 c54 -26 87 -55
122 -111 25 -38 29 -56 29 -116 1 -59 -4 -80 -29 -130 -36 -72 -104 -142 -145
-151 -17 -3 -33 -10 -36 -14 -7 -12 -101 -11 -109 1 -3 6 -15 10 -26 10 -44 0
-132 75 -163 139 -26 55 -22 158 10 220 35 67 88 127 133 151 50 27 157 27
214 1z m-4112 -189 c13 -15 62 -72 109 -127 47 -54 96 -111 110 -125 45 -47
80 -94 80 -106 0 -6 -21 -28 -46 -49 -45 -37 -46 -37 -87 -25 -23 7 -51 16
-62 20 -35 14 -180 59 -182 56 -2 -2 3 -9 92 -110 74 -85 75 -90 29 -131 -21
-19 -44 -34 -50 -35 -11 0 -52 42 -149 155 -33 39 -62 72 -65 75 -43 42 -120
143 -120 157 0 27 64 83 95 83 14 0 25 -4 25 -10 0 -5 10 -10 23 -10 22 0 107
-25 138 -41 9 -4 34 -11 55 -15 l39 -7 -20 24 c-11 13 -22 26 -25 29 -24 24
-120 139 -120 144 0 15 71 76 89 76 10 0 29 -12 42 -28z m4550 -143 c32 -31
40 -45 35 -62 -4 -12 -9 -38 -12 -57 -3 -19 -10 -44 -14 -55 -5 -11 -13 -47
-18 -80 -5 -33 -13 -69 -17 -80 -4 -11 33 22 81 73 49 51 96 93 104 92 8 0 33
-18 54 -40 l39 -41 -35 -37 c-19 -20 -69 -73 -111 -117 -41 -44 -104 -110
-139 -147 -35 -38 -71 -68 -79 -68 -8 0 -31 16 -52 36 -38 36 -38 38 -32 88 4
28 11 58 15 66 4 8 11 40 14 70 4 30 12 65 18 77 25 51 -7 32 -78 -45 -44 -48
-84 -82 -95 -82 -27 0 -79 49 -79 74 0 12 26 48 56 81 135 144 285 295 294
295 5 0 28 -18 51 -41z m1044 -48 c15 -22 25 -45 23 -52 -2 -6 -58 -50 -123
-98 -66 -47 -125 -97 -131 -110 -21 -42 20 -111 66 -111 8 0 71 41 140 90 69
50 133 90 142 90 15 0 58 -56 58 -77 0 -14 -238 -182 -290 -205 -39 -17 -50
-18 -82 -7 -21 7 -54 28 -73 47 -37 38 -85 127 -85 160 0 34 27 86 62 118 27
26 255 194 263 194 1 0 15 -18 30 -39z m-6732 -131 c90 -65 169 -126 176 -134
10 -12 7 -22 -14 -55 -14 -23 -29 -41 -33 -41 -17 0 -357 257 -360 273 -4 20
37 77 55 77 7 0 86 -54 176 -120z m707 -83 c19 -17 67 -59 105 -92 136 -116
175 -168 175 -235 0 -37 -22 -93 -47 -118 -7 -8 -18 -22 -23 -32 -6 -11 -30
-33 -54 -50 -37 -25 -54 -30 -102 -30 -62 0 -96 19 -218 124 -156 135 -162
142 -147 169 15 29 59 77 69 77 8 0 53 -33 82 -60 8 -8 31 -28 50 -44 19 -15
53 -45 75 -65 22 -20 53 -44 68 -54 27 -18 30 -18 55 -1 78 51 70 87 -44 184
-120 103 -174 155 -174 168 0 20 61 92 79 92 9 0 32 -15 51 -33z m-916 -61
c50 -30 114 -66 141 -81 93 -52 125 -75 125 -91 0 -18 -37 -74 -49 -74 -5 0
-47 23 -95 50 -48 28 -90 50 -94 50 -3 0 31 -38 77 -84 l84 -84 -16 -35 c-27
-56 -32 -57 -142 -26 -55 16 -104 28 -108 26 -4 -1 33 -26 83 -56 49 -29 90
-60 90 -68 0 -25 -33 -73 -50 -73 -9 0 -37 13 -62 29 -25 16 -65 40 -89 54
-176 99 -229 132 -229 143 0 18 56 118 68 122 8 2 112 -22 232 -54 18 -5 0 19
-69 89 l-95 96 19 42 c27 59 55 91 73 84 8 -3 56 -30 106 -59z m7247 -190 l20
-44 -25 -41 c-14 -22 -26 -43 -26 -45 0 -2 -22 -41 -50 -85 -27 -44 -50 -83
-50 -87 0 -3 48 20 106 50 58 31 110 56 115 56 11 0 39 -54 39 -78 0 -20 2
-18 -220 -134 -74 -39 -139 -75 -144 -79 -21 -19 -38 -7 -57 36 -23 53 -26 43
64 197 31 53 57 99 57 103 0 3 -43 -17 -95 -44 -52 -28 -103 -51 -113 -51 -11
0 -25 14 -36 37 -21 44 -19 46 84 101 241 128 286 151 297 152 7 0 22 -20 34
-44z m-819 -76 c21 -30 41 -59 46 -65 27 -34 122 -178 122 -186 0 -5 5 -9 10
-9 21 0 8 -30 -23 -54 -43 -33 -69 -33 -90 2 -9 15 -25 38 -36 51 l-19 25 -30
-25 c-16 -13 -38 -30 -48 -36 -10 -7 -64 -45 -119 -84 -55 -39 -106 -74 -113
-76 -15 -6 -62 34 -62 54 0 7 -4 13 -10 13 -5 0 -10 10 -10 23 0 16 18 34 65
67 36 25 77 55 93 67 15 13 30 23 33 23 3 0 19 11 35 25 16 14 32 25 35 25 3
0 16 9 29 20 l24 20 -32 46 c-18 24 -32 52 -32 62 0 21 59 73 80 69 8 -1 31
-27 52 -57z m-5838 -186 c38 -14 1 -141 -39 -137 -75 9 -129 -84 -93 -162 13
-28 88 -79 132 -89 39 -9 92 10 115 42 25 35 32 117 11 117 -8 0 -23 -17 -33
-37 -11 -23 -26 -38 -36 -38 -25 0 -81 30 -88 46 -3 8 7 38 23 66 15 29 32 63
38 75 6 13 14 23 19 23 4 0 7 6 7 14 0 7 7 19 15 26 13 11 22 9 53 -6 20 -10
39 -22 40 -26 2 -5 8 -8 12 -8 5 0 30 -12 56 -27 l46 -28 -5 -90 c-3 -74 -9
-99 -32 -139 -40 -71 -72 -103 -131 -131 -77 -36 -147 -30 -247 22 -41 21
-117 101 -117 124 0 10 -4 21 -10 24 -5 3 -10 35 -10 71 0 108 59 213 145 257
31 15 102 22 129 11z m-915 -235 c96 -30 159 -76 189 -139 26 -54 22 -144 -10
-205 -32 -61 -50 -78 -113 -106 -60 -27 -120 -22 -199 17 -92 45 -136 110
-136 200 0 155 137 274 269 233z m6982 -53 c100 -35 169 -141 169 -257 0 -146
-127 -259 -291 -259 -80 0 -119 15 -168 62 -49 48 -89 153 -83 213 14 122 76
189 232 248 27 10 104 6 141 -7z m882 -73 c17 -51 21 -47 -106 -124 -49 -29
-91 -57 -94 -62 -3 -5 27 -6 73 -1 44 5 101 9 129 9 44 0 51 -3 63 -28 7 -15
16 -42 19 -60 5 -32 3 -34 -96 -97 -95 -61 -124 -88 -83 -76 9 2 65 7 123 11
l106 7 15 -46 c14 -44 14 -47 -3 -56 -9 -6 -84 -14 -166 -20 -81 -5 -178 -12
-215 -16 l-67 -6 -15 37 c-25 58 -21 71 37 110 28 20 81 57 117 82 l65 45
-144 -5 -143 -4 -14 33 c-32 77 -41 68 344 305 32 20 36 17 55 -38z m-6886
-289 c3 -9 -2 -41 -12 -70 l-18 -54 -58 0 c-54 0 -58 -2 -72 -30 -9 -16 -18
-43 -22 -60 -4 -16 -11 -32 -16 -35 -19 -12 -8 -38 31 -72 22 -20 40 -42 40
-49 0 -23 -39 -104 -54 -110 -14 -5 -43 19 -215 181 -202 190 -192 177 -181
216 5 19 15 46 21 61 l11 27 122 4 c362 9 416 8 423 -9z m-1295 -103 c13 -5
59 -16 103 -25 147 -31 197 -49 232 -84 30 -30 33 -38 33 -93 0 -113 -67 -181
-162 -162 -25 5 -28 10 -28 48 0 48 11 62 55 67 24 2 31 8 33 30 5 40 4 40
-243 94 -38 9 -77 20 -86 25 -17 9 -17 9 7 97 4 14 24 15 56 3z m7602 -88 c7
-16 17 -42 20 -59 8 -34 0 -45 -94 -147 -54 -59 -74 -81 -90 -101 -14 -18 -13
-18 20 -12 19 4 44 11 55 15 35 15 127 41 144 41 24 0 58 -92 43 -117 -4 -7
-25 -16 -47 -22 -42 -10 -76 -20 -165 -47 -30 -9 -76 -21 -102 -28 -25 -6 -50
-14 -54 -19 -4 -4 -17 -7 -29 -7 -11 0 -26 -5 -32 -11 -6 -6 -23 -9 -39 -7
-22 2 -30 9 -32 28 -2 14 -8 29 -13 34 -17 18 -9 61 17 91 14 17 39 46 56 65
16 19 50 57 76 84 38 40 42 47 21 41 -26 -9 -65 -19 -141 -38 -25 -7 -50 -15
-54 -20 -16 -16 -33 -5 -48 33 -9 22 -16 51 -16 63 0 24 -5 22 153 72 26 8 54
15 62 15 9 0 23 4 33 9 24 13 121 41 141 41 9 0 21 4 27 9 5 5 20 11 34 14 14
2 28 5 32 6 4 0 14 -11 22 -26z m391 -183 c22 -4 74 -15 115 -24 41 -9 107
-23 145 -31 39 -9 83 -18 98 -22 31 -6 42 -22 50 -75 4 -27 1 -40 -11 -51 -47
-40 -396 -247 -404 -239 -5 5 -11 31 -15 59 l-5 50 41 24 c46 26 49 37 30 132
-11 54 -13 57 -48 63 -58 11 -68 20 -75 69 -8 51 -1 69 23 60 9 -4 34 -10 56
-15z m-8000 -130 c108 -20 239 -42 278 -47 46 -6 49 -11 41 -61 -10 -64 -11
-64 -105 -47 -46 9 -106 20 -134 25 -27 5 -81 15 -120 21 -98 16 -105 21 -99
67 9 62 11 65 47 59 17 -3 59 -11 92 -17z"/>
<path d="M5645 7705 c-27 -8 -54 -14 -58 -15 -7 0 0 -66 9 -82 5 -8 115 20
132 34 17 15 15 42 -6 61 -10 10 -20 17 -23 16 -2 0 -26 -7 -54 -14z"/>
<path d="M8061 7379 c-35 -43 -34 -53 12 -64 l27 -7 0 56 c0 31 -1 56 -2 56
-2 0 -18 -19 -37 -41z"/>
<path d="M7372 6853 c-34 -16 -58 -55 -81 -128 -24 -77 29 -148 110 -148 30 0
47 7 67 26 27 26 62 116 62 158 0 36 -32 78 -72 94 -47 18 -45 18 -86 -2z"/>
<path d="M3825 6799 c-93 -53 -96 -135 -8 -223 31 -31 43 -36 82 -36 98 0 135
100 71 188 -47 65 -105 93 -145 71z"/>
<path d="M9120 6741 c-57 -58 -69 -103 -44 -157 20 -41 72 -69 111 -59 33 8
98 69 118 111 35 75 -15 154 -98 154 -36 0 -46 -6 -87 -49z"/>
<path d="M9565 6410 l-29 -30 40 -41 c56 -59 72 -65 96 -41 13 12 18 27 14 39
-5 17 -79 103 -88 103 -2 0 -17 -14 -33 -30z"/>
<path d="M8364 6400 c-28 -11 -72 -71 -92 -125 -16 -44 -16 -47 3 -81 11 -20
37 -45 57 -57 32 -17 40 -18 67 -7 96 39 156 186 99 241 -40 37 -88 48 -134
29z"/>
<path d="M2592 5045 c-37 -31 -48 -81 -28 -129 11 -26 28 -42 65 -60 86 -44
154 -30 187 40 28 58 -3 116 -81 153 -60 28 -106 27 -143 -4z"/>
<path d="M9550 4974 c-94 -51 -119 -128 -61 -193 26 -29 35 -33 80 -33 36 1
61 8 93 28 64 40 78 61 78 112 0 38 -5 49 -36 78 -44 42 -88 44 -154 8z"/>
<path d="M3331 4623 c8 -10 23 -25 34 -35 19 -15 21 -15 32 5 22 39 16 47 -33
47 -43 0 -45 -1 -33 -17z"/>
<path d="M10539 4243 c-2 -14 3 -58 7 -65 6 -9 93 33 94 44 0 4 -11 10 -25 13
-14 3 -36 7 -50 10 -14 3 -25 2 -26 -2z"/>
<path d="M3431 7748 c-49 -36 -58 -14 85 -210 51 -71 96 -137 99 -149 21 -66
-81 -143 -145 -109 -10 5 -66 75 -125 155 -59 80 -111 145 -117 145 -13 0 -78
-50 -78 -60 0 -14 206 -283 243 -319 72 -68 176 -50 270 48 76 79 84 145 26
236 -31 48 -154 217 -195 267 l-22 27 -41 -31z"/>
<path d="M9368 7575 c-84 -107 -154 -199 -156 -204 -2 -5 57 -59 130 -122 73
-62 141 -119 151 -128 18 -15 21 -14 43 14 13 17 24 35 24 41 0 6 -45 49 -100
95 -55 46 -101 88 -104 95 -2 6 15 33 38 59 l42 48 40 -34 c21 -19 64 -56 96
-82 l56 -48 26 28 c14 15 26 33 26 39 0 6 -43 48 -95 93 l-96 82 32 40 c17 21
34 39 38 39 4 0 52 -38 106 -85 55 -46 103 -84 106 -85 4 0 18 15 33 34 l26
35 -142 120 c-79 67 -148 121 -155 121 -7 0 -81 -88 -165 -195z"/>
<path d="M2915 7276 c-29 -13 -215 -197 -215 -213 0 -5 83 -91 185 -193 183
-183 185 -184 204 -165 167 177 197 226 188 312 -7 67 -40 124 -106 186 -86
80 -179 107 -256 73z m178 -154 c59 -56 90 -116 83 -155 -6 -34 -79 -127 -99
-127 -7 0 -63 51 -126 114 -101 101 -112 116 -102 134 16 29 90 90 115 95 33
5 87 -20 129 -61z"/>
<path d="M10025 7153 c-54 -28 -112 -81 -145 -133 -57 -89 -52 -217 13 -290
36 -41 90 -77 125 -85 43 -9 111 1 136 21 20 14 20 15 -2 60 -20 40 -26 45
-45 39 -74 -23 -116 -13 -147 37 -29 47 -26 97 9 148 35 52 102 106 142 115
88 19 165 -60 138 -142 -6 -19 -9 -36 -7 -37 58 -44 76 -56 82 -56 13 0 36 69
36 109 0 77 -46 153 -120 201 -41 26 -56 30 -116 30 -43 -1 -80 -7 -99 -17z"/>
<path d="M10340 6623 c-107 -85 -196 -161 -198 -169 -2 -8 49 -84 113 -169
l116 -155 34 26 c41 31 43 26 -55 156 -38 51 -69 100 -69 108 0 13 77 80 92
80 3 0 40 -45 82 -100 81 -107 86 -109 128 -62 18 20 17 23 -58 123 l-77 103
33 28 c18 16 40 28 49 28 8 -1 50 -48 93 -106 l78 -105 29 18 c16 9 32 23 35
30 4 12 -187 286 -218 311 -9 7 -65 -32 -207 -145z"/>
<path d="M2330 6593 c-52 -76 -101 -147 -107 -159 -12 -21 -2 -30 192 -176
113 -84 209 -153 213 -152 10 1 221 307 222 321 0 10 -50 53 -63 53 -3 0 -42
-52 -86 -115 -55 -78 -86 -113 -94 -108 -61 39 -87 60 -87 71 0 8 29 57 65
109 36 52 65 99 65 103 0 11 -50 50 -64 50 -6 0 -41 -43 -76 -96 -35 -52 -68
-98 -73 -101 -12 -7 -77 46 -77 63 0 9 33 63 72 121 l73 105 -30 24 c-17 13
-35 24 -40 24 -6 0 -53 -62 -105 -137z"/>
<path d="M10759 6203 c-64 -38 -159 -93 -212 -123 -53 -30 -96 -59 -97 -63 0
-12 150 -287 168 -309 13 -16 17 -16 43 -3 15 8 31 19 34 25 4 6 -20 59 -53
119 -33 60 -56 114 -53 119 3 5 67 45 141 87 161 93 210 123 210 131 0 16 -42
84 -53 84 -7 0 -64 -30 -128 -67z"/>
<path d="M2085 6161 c-67 -42 -115 -121 -122 -201 -6 -73 17 -117 79 -148 72
-36 113 -21 208 79 59 61 82 79 103 79 22 0 31 -7 41 -32 12 -27 11 -38 -1
-75 -19 -54 -45 -73 -101 -73 -41 0 -43 -2 -62 -46 -11 -25 -20 -47 -20 -49 0
-2 16 -9 36 -15 105 -35 211 47 249 192 26 95 -19 183 -105 209 -71 21 -105 6
-195 -87 -86 -88 -115 -101 -136 -63 -27 52 48 151 102 134 16 -5 23 2 40 41
21 46 21 48 3 61 -26 19 -84 16 -119 -6z"/>
<path d="M10925 5697 c-115 -51 -218 -97 -227 -102 -15 -9 -8 -30 59 -192 48
-115 81 -183 90 -183 20 0 74 30 69 38 -3 6 -29 70 -87 215 l-19 48 52 24 c29
14 58 25 63 25 6 0 30 -49 54 -108 56 -137 54 -135 97 -115 19 9 34 22 34 27
0 6 -20 60 -45 121 -32 78 -41 112 -34 121 15 18 79 38 88 28 4 -5 29 -62 56
-126 29 -72 53 -118 62 -118 8 0 27 7 43 15 l30 15 -17 43 c-70 178 -132 312
-144 314 -8 1 -108 -39 -224 -90z"/>
<path d="M1832 5708 c-6 -13 -16 -36 -22 -51 l-10 -28 148 -70 c222 -107 311
-149 317 -149 6 0 45 76 45 90 0 6 -42 30 -92 54 -51 24 -155 73 -231 110 -75
36 -139 66 -141 66 -1 0 -8 -10 -14 -22z"/>
<path d="M6288 5497 c-15 -10 -15 -12 5 -22 12 -6 22 -17 22 -25 0 -25 -48
-12 -73 20 -24 31 -46 38 -58 19 -3 -6 6 -22 22 -34 16 -13 26 -26 22 -30 -12
-12 -56 4 -63 23 -3 9 -17 25 -30 35 -23 16 -26 17 -31 2 -4 -10 3 -26 16 -40
13 -14 20 -28 17 -32 -4 -3 -15 4 -26 15 -24 29 -33 28 -25 -3 8 -33 -17 -34
-39 -2 -8 12 -18 18 -23 13 -5 -5 -4 -11 4 -13 16 -6 16 -43 -1 -43 -7 0 -18
5 -25 12 -8 8 -15 8 -27 -2 -12 -10 -21 -10 -40 -2 -22 10 -24 9 -27 -16 -4
-33 -45 -44 -64 -17 -15 20 -46 13 -38 -8 3 -8 -7 -22 -23 -32 -15 -10 -37
-27 -48 -37 -11 -11 -32 -27 -47 -36 -40 -23 -36 -42 8 -42 26 0 46 -8 70 -30
66 -57 344 -126 469 -117 39 3 174 8 300 11 234 5 391 21 556 56 56 12 135 20
198 21 58 1 117 4 131 8 43 12 31 42 -32 84 -32 21 -58 45 -58 53 0 10 -12 14
-39 14 -25 0 -41 5 -45 15 -3 8 -14 15 -25 15 -11 0 -23 5 -26 10 -3 6 -15 10
-26 10 -11 0 -37 9 -59 20 -22 11 -48 20 -60 20 -26 0 -26 20 0 48 17 18 18
22 5 22 -8 0 -15 -4 -15 -8 0 -5 -12 -14 -26 -21 -20 -9 -30 -9 -40 0 -10 8
-22 8 -43 1 -37 -13 -55 4 -45 42 8 35 -23 36 -36 2 -13 -34 -31 -42 -46 -21
-13 18 -15 18 -33 1 -27 -25 -65 -5 -58 30 6 34 -25 28 -33 -6 -3 -14 -14 -26
-23 -28 -25 -5 -49 18 -44 40 4 12 0 18 -12 18 -12 0 -17 -8 -16 -27 0 -22 -5
-29 -23 -31 -30 -4 -55 16 -49 40 4 15 -1 18 -36 17 -35 0 -38 -2 -19 -9 12
-5 22 -16 22 -24 0 -38 -64 -31 -74 9 -7 26 -30 34 -42 14 -3 -6 -1 -16 5 -22
6 -6 11 -17 11 -24 0 -17 -29 -17 -32 0 0 6 -2 17 -2 22 -4 33 -28 43 -58 22z
m132 -116 c0 -13 69 -43 86 -37 21 8 17 25 -8 36 -18 7 -9 9 37 9 57 0 59 -1
38 -16 -13 -8 -23 -21 -23 -27 0 -15 -167 -47 -199 -39 -17 4 -23 1 -27 -14
-11 -40 -85 -52 -98 -16 -3 8 3 31 13 51 15 28 27 38 62 48 54 14 119 17 119
5z m602 -42 c95 -37 140 -67 152 -102 15 -40 -14 -62 -109 -87 -88 -22 -185
-36 -185 -27 0 3 12 23 26 44 21 31 25 46 21 86 -2 28 -13 61 -26 77 -44 60
-19 62 121 9z m-392 -14 c-10 -9 -24 -12 -40 -8 l-25 7 25 7 c14 4 32 7 40 8
12 1 12 -1 0 -14z m-590 -30 c0 -50 25 -104 67 -147 20 -21 34 -41 30 -44 -3
-4 -75 8 -159 25 -192 39 -237 67 -184 114 26 23 185 85 224 86 19 1 22 -4 22
-34z m1240 -75 c33 -17 60 -35 60 -40 0 -6 -33 -10 -75 -10 -72 0 -75 1 -65
19 5 11 10 29 10 40 0 27 -1 27 70 -9z m-873 -36 c28 -8 37 -33 23 -68 -14
-37 -35 -28 -35 15 0 32 -2 34 -40 38 -36 3 -37 5 -15 11 33 10 41 11 67 4z
m230 -19 c3 -9 3 -18 0 -21 -9 -10 -57 8 -57 22 0 19 49 18 57 -1z m-108 -11
c3 -3 0 -9 -6 -15 -8 -8 -17 -7 -32 3 -12 8 -18 18 -14 22 6 6 42 -1 52 -10z
m-9 -43 c0 -9 -24 -21 -42 -21 -6 0 -6 6 2 15 14 16 40 20 40 6z m138 2 c-10
-2 -26 -2 -35 0 -10 3 -2 5 17 5 19 0 27 -2 18 -5z"/>
<path d="M7108 5433 c7 -3 16 -2 19 1 4 3 -2 6 -13 5 -11 0 -14 -3 -6 -6z"/>
<path d="M7185 5400 c3 -5 10 -10 16 -10 5 0 9 5 9 10 0 6 -7 10 -16 10 -8 0
-12 -4 -9 -10z"/>
<path d="M2121 5287 c-10 -23 -28 -75 -41 -115 -13 -41 -29 -76 -37 -79 -8 -3
-60 11 -116 32 -56 20 -140 50 -185 67 -46 16 -87 26 -92 22 -15 -17 -32 -86
-24 -94 5 -5 54 -25 109 -45 55 -20 155 -57 222 -82 67 -25 129 -43 136 -40
15 6 117 297 117 333 0 15 -10 24 -36 32 l-35 11 -18 -42z"/>
<path d="M11215 5201 c-61 -36 -70 -63 -70 -197 0 -131 -8 -154 -51 -154 -32
0 -60 30 -75 79 -15 49 -6 83 28 115 27 25 27 26 12 68 -19 52 -37 57 -78 22
-63 -53 -81 -120 -56 -215 30 -118 90 -179 176 -179 55 0 103 29 133 80 18 30
21 49 19 147 -2 94 0 114 15 133 25 30 54 15 76 -40 22 -55 20 -73 -9 -108
l-25 -30 20 -46 c10 -25 24 -46 29 -46 24 0 71 54 85 98 23 71 -3 180 -58 240
-48 53 -117 67 -171 33z"/>
<path d="M6393 5018 c-17 -8 -22 -18 -20 -42 l2 -31 -50 5 c-94 9 -349 3 -400
-9 -27 -7 -120 -17 -205 -21 -264 -14 -289 -19 -365 -80 -36 -28 -65 -55 -65
-60 0 -5 22 -25 50 -45 27 -20 55 -48 62 -63 7 -15 27 -31 43 -37 56 -19 56
-20 54 -126 -1 -54 0 -101 3 -104 11 -11 283 -34 540 -47 197 -9 251 -14 235
-23 -21 -10 -22 -19 -25 -133 l-3 -122 -232 -2 -232 -3 0 -175 0 -175 233 -3
232 -2 0 -375 0 -375 278 2 277 3 3 373 2 372 239 0 c209 0 240 2 245 16 3 9
6 82 6 164 0 82 -3 155 -6 164 -5 14 -36 16 -245 16 l-239 0 0 119 c0 86 -4
122 -13 129 -8 7 -73 13 -158 15 l-144 3 170 2 c273 4 753 36 803 53 21 8 22
14 22 114 l0 105 28 6 c35 9 52 22 63 51 4 12 31 37 58 55 28 18 51 38 51 45
0 17 -116 112 -143 117 -45 10 -136 18 -287 26 -85 4 -177 13 -205 20 -70 18
-287 23 -363 10 -69 -12 -96 -3 -85 27 12 31 -36 53 -117 52 -41 0 -85 -5 -97
-11z m147 -32 c0 -8 2 -21 6 -29 3 -9 -6 -19 -26 -27 -39 -16 -80 2 -80 35 0
30 7 35 57 35 30 0 43 -4 43 -14z m-385 -66 c4 -6 -11 -10 -37 -10 -31 0 -39
3 -28 10 20 13 57 13 65 0z m735 0 c11 -7 3 -10 -30 -10 -33 0 -41 3 -30 10 8
5 22 10 30 10 8 0 22 -5 30 -10z m-852 -30 c-67 -36 -83 -80 -49 -136 l19 -32
-48 2 c-34 1 -54 -4 -68 -17 -19 -17 -20 -17 -45 13 -15 17 -32 49 -39 72 -11
39 -11 42 15 64 35 30 96 46 145 38 25 -4 42 -2 46 5 4 6 19 11 34 11 26 -1
26 -2 -10 -20z m928 9 c4 -7 22 -9 50 -4 51 7 118 -9 145 -36 26 -26 24 -64
-6 -114 -26 -46 -50 -62 -59 -40 -7 20 -69 29 -96 15 -31 -17 -36 -6 -11 26
40 51 16 119 -53 149 l-31 13 27 1 c15 1 30 -4 34 -10z m-1343 -16 c-7 -2 -19
-2 -25 0 -7 3 -2 5 12 5 14 0 19 -2 13 -5z m1770 0 c-7 -2 -19 -2 -25 0 -7 3
-2 5 12 5 14 0 19 -2 13 -5z m-1845 -23 c-15 -4 -44 -18 -63 -30 -29 -18 -35
-27 -35 -57 0 -37 32 -75 107 -126 39 -26 42 -37 9 -37 -18 0 -26 6 -28 21 -3
23 -8 27 -75 54 -23 10 -50 26 -59 36 -16 18 -16 20 -1 37 21 23 22 38 2 46
-36 13 -9 32 80 54 22 5 51 10 65 10 25 0 25 0 -2 -8z m1964 -6 c81 -21 94
-31 67 -53 l-20 -16 20 -27 21 -26 -39 -25 c-22 -15 -52 -29 -68 -33 l-28 -7
38 41 c59 66 49 100 -43 141 -54 25 -34 27 52 5z m-947 -116 c36 -18 65 -36
65 -40 0 -5 -18 -15 -40 -24 -22 -9 -45 -25 -51 -35 -15 -29 -76 -26 -101 6
-11 14 -25 25 -32 25 -6 0 -22 7 -34 16 -23 16 -23 16 45 50 37 18 71 34 75
34 4 0 37 -14 73 -32z m-881 -59 c25 -20 26 -23 12 -37 -13 -14 -19 -14 -41
-2 -24 13 -33 39 -18 53 10 11 19 8 47 -14z m370 3 c9 -11 34 -28 56 -38 22
-10 40 -22 40 -26 0 -5 -36 -8 -79 -8 -44 0 -86 -3 -94 -6 -8 -3 -21 2 -28 11
-8 8 -20 22 -28 31 -11 13 -9 15 20 13 45 -3 79 9 79 27 0 19 14 18 34 -4z
m974 -24 l42 1 -22 -30 c-16 -22 -28 -29 -43 -25 -11 3 -53 6 -92 6 -40 0 -73
3 -72 8 0 4 25 23 56 43 56 36 57 36 73 17 12 -15 28 -20 58 -20z m322 17 c0
-26 -32 -50 -56 -41 -21 8 -17 31 9 49 32 23 47 20 47 -8z m96 -50 c-5 -15
-56 -21 -56 -7 0 4 12 15 28 24 27 17 39 10 28 -17z m-1539 -21 c-3 -3 -12 -4
-19 -1 -8 3 -5 6 6 6 11 1 17 -2 13 -5z m1131 -34 c97 -6 188 -13 202 -17 l25
-5 -22 -11 c-51 -23 -10 -67 63 -67 39 0 74 15 74 31 0 6 -10 20 -22 30 l-23
20 50 -7 c28 -4 52 -8 54 -10 3 -3 6 -25 7 -49 2 -53 27 -50 -229 -30 -426 34
-1021 34 -1444 0 -260 -20 -235 -24 -231 32 3 47 3 47 46 56 47 9 68 2 39 -14
-9 -6 -17 -18 -17 -28 0 -44 143 -38 157 6 2 6 -8 19 -24 27 -15 8 -26 16 -23
17 3 1 79 7 170 14 209 15 915 18 1148 5z m-355 -306 c-4 -12 0 -14 22 -12
l27 3 -1 -115 c-2 -110 -3 -116 -26 -133 -14 -10 -25 -25 -25 -33 0 -8 -9 -14
-20 -14 -19 0 -20 7 -20 129 0 108 -3 130 -16 135 -9 3 -51 6 -95 6 -60 0 -81
-4 -85 -15 -3 -8 -7 -67 -7 -132 -2 -103 -4 -118 -19 -121 -11 -2 -18 3 -18
11 0 9 -11 24 -25 34 -25 18 -26 22 -27 133 -1 115 -1 115 23 115 14 0 23 5
22 13 -2 9 32 12 147 12 131 0 149 -2 143 -16z m-342 -271 c16 -10 29 -21 29
-25 0 -4 -91 -9 -202 -10 l-203 -3 0 -60 0 -60 235 -5 235 -5 5 -365 5 -365
95 0 95 0 3 368 2 367 235 0 c181 0 235 3 236 13 1 12 1 95 0 109 -1 4 -94 9
-208 10 l-208 3 35 22 c33 22 45 23 223 23 160 0 187 -2 187 -15 0 -8 9 -15
20 -15 18 0 20 -7 20 -85 0 -84 0 -85 -25 -85 -15 0 -24 -5 -22 -12 1 -10 -42
-14 -183 -16 -156 -2 -191 0 -223 14 -47 21 -61 10 -24 -20 l27 -22 0 -353 c0
-352 0 -353 -21 -348 -12 3 -22 0 -26 -9 -7 -19 -279 -21 -285 -2 -3 7 -14 13
-27 13 l-21 0 -1 350 c0 340 1 350 21 367 11 9 20 23 20 32 0 13 -5 13 -32 -4
-30 -18 -51 -20 -225 -20 -165 0 -193 2 -193 15 0 8 -9 15 -20 15 -18 0 -20 7
-20 85 0 78 2 85 20 85 11 0 20 7 20 15 0 24 360 22 401 -2z"/>
<path d="M5853 4845 c-35 -15 -41 -27 -20 -42 21 -17 56 -22 92 -12 46 13 47
43 4 58 -39 13 -36 13 -76 -4z"/>
<path d="M7054 4850 c-76 -30 3 -81 85 -55 36 11 26 43 -16 54 -44 12 -41 12
-69 1z"/>
<path d="M6441 4728 c-36 -19 -36 -35 -2 -52 36 -19 71 -20 106 -4 26 12 30
24 17 45 -12 19 -93 26 -121 11z"/>
<path d="M6433 4560 c-50 -20 -15 -60 52 -60 43 0 75 15 75 35 0 31 -76 45
-127 25z"/>
<path d="M6020 4553 c-55 -11 -61 -47 -9 -58 64 -14 142 17 113 45 -12 11 -73
19 -104 13z"/>
<path d="M6883 4553 c-28 -6 -36 -28 -16 -45 20 -17 118 -17 135 0 27 27 -55
59 -119 45z"/>
<path d="M1623 4893 c-12 -2 -40 -22 -62 -43 -30 -30 -45 -55 -60 -108 -12
-38 -21 -81 -21 -95 0 -130 113 -247 253 -263 190 -22 312 126 286 345 -11 92
-22 104 -129 129 -50 12 -95 20 -99 18 -4 -3 -13 -31 -20 -63 -7 -32 -17 -71
-22 -87 -18 -58 -12 -73 31 -84 l40 -10 11 42 c16 59 24 71 45 68 36 -6 47
-29 47 -90 0 -104 -47 -152 -150 -152 -109 1 -182 54 -191 138 -6 68 18 116
69 139 38 17 39 18 39 70 0 57 -2 59 -67 46z"/>
<path d="M11457 4698 c-15 -12 -16 -19 -3 -78 8 -38 10 -70 5 -76 -5 -6 -26
-14 -47 -17 -20 -3 -68 -13 -107 -22 -38 -8 -95 -20 -125 -26 -30 -5 -70 -15
-88 -21 -34 -10 -34 -11 -27 -57 4 -25 10 -49 13 -53 4 -3 86 11 182 32 96 20
187 40 203 42 29 6 26 11 54 -102 9 -33 11 -35 48 -32 22 2 42 5 44 7 5 5 -24
157 -75 393 -3 16 -11 22 -32 22 -16 0 -36 -6 -45 -12z"/>
<path d="M1389 4068 c-8 -101 -14 -190 -14 -198 0 -11 17 -17 70 -22 307 -29
430 -37 437 -30 8 8 14 66 34 320 l7 82 -45 0 -46 0 -5 -52 c-4 -29 -9 -92
-13 -141 -3 -48 -11 -90 -16 -93 -5 -3 -35 -3 -65 1 l-56 7 8 134 7 134 -44 0
-44 0 -12 -127 c-7 -69 -14 -128 -17 -131 -2 -2 -25 -1 -51 3 l-46 7 3 141 4
142 -41 3 -41 3 -14 -183z"/>
<path d="M11560 4129 c-30 -4 -104 -12 -165 -19 -205 -20 -266 -27 -271 -32
-4 -5 19 -251 34 -353 7 -50 7 -50 42 -47 19 1 39 7 44 12 6 6 5 46 -2 104 -7
52 -12 115 -12 139 l0 45 61 7 c33 4 62 6 63 4 2 -2 10 -60 17 -129 l14 -125
30 -3 c57 -5 59 3 47 135 -7 82 -7 122 0 130 6 7 30 13 53 13 l42 0 12 -122
c15 -155 16 -158 49 -158 52 0 56 9 48 112 -13 162 -31 291 -41 293 -5 2 -35
-1 -65 -6z"/>
<path d="M70 1612 c0 -1303 -2 -1249 56 -1364 55 -108 187 -205 313 -228 75
-14 12118 -14 12192 0 171 33 309 163 355 335 11 40 14 280 14 1253 l0 1202
-6465 0 -6465 0 0 -1198z m12850 -45 c0 -1284 3 -1216 -63 -1314 -45 -65 -119
-119 -196 -143 -63 -20 -108 -20 -6126 -20 -5935 0 -6065 0 -6124 19 -115 36
-213 134 -247 247 -12 39 -14 239 -14 1211 l0 1163 6385 0 6385 0 0 -1163z"/>
<path d="M675 2469 c-117 -11 -204 -69 -247 -163 -23 -50 -23 -56 -23 -402 l0
-350 30 -59 c58 -113 157 -161 319 -153 139 6 226 54 279 153 21 39 22 50 22
410 0 363 0 371 -22 411 -63 117 -186 170 -358 153z m95 -205 c6 -14 10 -165
10 -357 0 -346 -4 -378 -43 -385 -46 -9 -47 -2 -47 382 0 268 3 365 12 374 21
21 58 14 68 -14z"/>
<path d="M4553 2469 c-113 -14 -197 -70 -225 -148 -8 -21 -13 -83 -13 -147 0
-103 2 -114 30 -169 27 -53 42 -67 150 -142 180 -125 184 -128 196 -195 14
-78 -1 -135 -38 -144 -55 -14 -70 17 -72 144 l-1 82 -131 0 -132 0 5 -107 c7
-160 44 -226 152 -275 44 -19 68 -23 171 -23 111 0 125 2 182 29 112 51 137
98 137 261 0 204 -38 266 -239 390 -126 78 -145 100 -145 171 0 71 12 94 51
94 37 0 49 -27 49 -111 l0 -59 130 0 130 0 0 78 c0 42 -5 94 -11 115 -21 79
-110 141 -216 153 -26 3 -59 6 -73 8 -14 1 -53 -1 -87 -5z"/>
<path d="M10329 2469 c-119 -12 -199 -67 -230 -156 -18 -50 -18 -226 0 -277
20 -58 73 -109 203 -198 65 -44 127 -91 137 -104 46 -58 35 -198 -16 -210 -50
-13 -58 3 -61 120 l-3 106 -136 0 -136 0 5 -107 c7 -126 24 -179 76 -224 57
-50 116 -71 220 -77 163 -9 282 41 324 135 39 89 33 284 -12 373 -25 49 -72
89 -205 175 -60 40 -116 80 -124 89 -8 10 -17 44 -19 77 -5 67 13 99 54 99 32
0 44 -28 44 -104 l0 -66 131 0 131 0 -4 98 c-4 131 -22 165 -109 210 -73 38
-164 51 -270 41z"/>
<path d="M1180 1905 l0 -545 230 0 230 0 0 110 0 110 -90 0 -90 0 0 435 0 435
-140 0 -140 0 0 -545z"/>
<path d="M1712 1993 c3 -447 3 -459 25 -498 29 -54 78 -99 138 -127 43 -20 66
-23 170 -23 101 0 127 3 165 21 58 26 108 76 134 134 20 43 21 63 24 498 l3
452 -145 0 -146 0 0 -446 c0 -288 -4 -452 -10 -465 -12 -21 -40 -25 -58 -7 -9
9 -12 126 -12 465 l0 453 -146 0 -145 0 3 -457z"/>
<path d="M2431 2428 c0 -13 28 -257 62 -543 l62 -520 177 -3 c177 -2 178 -2
183 20 2 13 21 138 40 278 31 223 45 298 45 249 0 -17 54 -384 71 -481 l12
-68 178 0 c177 0 179 0 183 23 3 12 30 240 61 507 31 267 59 502 62 523 l6 37
-142 0 c-77 0 -141 -3 -141 -7 0 -5 -11 -97 -25 -206 -14 -110 -30 -270 -37
-358 -7 -87 -15 -159 -19 -159 -3 0 -9 42 -12 93 -4 50 -17 215 -29 365 l-22
272 -148 0 c-145 0 -148 0 -153 -22 -13 -62 -75 -628 -75 -691 0 -11 -2 -18
-4 -16 -2 2 -17 167 -32 367 l-28 362 -138 0 c-137 0 -138 0 -137 -22z"/>
<path d="M3696 2428 c-3 -13 -35 -248 -71 -523 -36 -275 -68 -510 -70 -522
l-5 -23 149 0 149 0 8 98 9 97 51 3 c50 3 51 2 58 -29 3 -17 6 -52 6 -78 0
-95 -7 -91 157 -91 l145 0 -5 23 c-3 12 -40 257 -83 545 l-79 522 -207 0
c-207 0 -208 0 -212 -22z m239 -384 c8 -82 18 -182 21 -221 l7 -73 -52 0 -52
0 5 33 c3 17 15 119 27 224 13 106 24 191 26 189 2 -2 10 -71 18 -152z"/>
<path d="M5060 1905 l0 -545 250 0 250 0 0 110 0 110 -105 0 -105 0 0 120 0
120 90 0 90 0 0 100 0 100 -90 0 -90 0 0 110 0 110 95 0 95 0 0 105 0 105
-240 0 -240 0 0 -545z"/>
<path d="M5643 2003 c3 -331 8 -458 17 -486 21 -59 72 -111 142 -143 58 -27
72 -29 178 -29 99 0 122 3 165 23 61 28 89 54 123 112 l27 45 3 463 3 462
-140 0 -140 0 -3 -448 c-3 -474 -4 -482 -49 -482 -10 0 -23 9 -29 19 -6 13
-10 177 -10 465 l0 446 -146 0 -146 0 5 -447z"/>
<path d="M6420 1905 l0 -545 120 0 120 0 2 242 3 242 54 -180 c30 -98 63 -207
73 -241 l19 -63 124 0 125 0 0 545 0 545 -120 0 -120 0 0 -242 -1 -243 -80
243 -80 242 -119 0 -120 0 0 -545z"/>
<path d="M7550 1905 l0 -545 145 0 145 0 0 219 0 218 83 5 c150 10 215 45 237
128 7 27 10 103 8 209 -2 138 -6 172 -22 204 -43 87 -116 107 -393 107 l-203
0 0 -545z m358 349 c20 -14 22 -23 22 -124 0 -121 -8 -140 -61 -140 l-29 0 0
140 c0 139 0 140 23 140 12 0 33 -7 45 -16z"/>
<path d="M8236 1938 c-38 -282 -71 -528 -73 -545 l-5 -33 151 0 151 0 0 48 c0
26 3 71 6 100 l7 52 52 0 52 0 7 -61 c3 -34 6 -79 6 -100 l0 -39 149 0 c137 0
149 1 145 18 -2 9 -38 244 -79 522 -41 278 -78 515 -80 528 -5 22 -6 22 -213
22 l-208 0 -68 -512z m309 77 c8 -93 18 -191 21 -217 l7 -48 -52 0 c-43 0 -51
3 -51 18 0 10 11 108 25 218 14 109 25 204 26 209 2 29 10 -26 24 -180z"/>
<path d="M8940 1905 l0 -545 145 0 145 0 0 248 0 249 30 -5 c53 -8 55 -16 58
-264 l3 -228 130 0 130 0 -3 233 -3 234 -28 36 c-18 23 -42 41 -67 48 -44 13
-53 29 -16 29 12 0 38 10 57 23 49 33 61 79 57 212 -4 130 -27 191 -87 230
-54 36 -122 45 -347 45 l-204 0 0 -545z m337 359 c12 -3 27 -19 33 -35 14 -33
10 -173 -5 -188 -6 -6 -25 -14 -43 -17 l-32 -6 0 126 c0 132 0 132 47 120z"/>
<path d="M9700 1905 l0 -545 145 0 145 0 0 545 0 545 -145 0 -145 0 0 -545z"/>
<path d="M10830 1905 l0 -545 145 0 145 0 0 230 0 230 45 0 45 0 0 -230 0
-230 145 0 145 0 0 545 0 545 -145 0 -145 0 0 -195 0 -195 -45 0 -45 0 0 195
0 195 -145 0 -145 0 0 -545z"/>
<path d="M11925 2428 c2 -13 39 -246 80 -518 41 -272 78 -507 81 -522 l6 -28
216 0 217 0 69 518 c38 284 71 529 73 545 l6 27 -151 0 -151 0 -5 -42 c-10
-71 -45 -465 -52 -581 -4 -59 -10 -104 -14 -100 -4 4 -13 78 -20 163 -6 85
-22 245 -34 355 l-21 200 -153 3 -153 3 6 -23z"/>
<path d="M541 936 c-6 -7 -34 -87 -61 -177 -107 -348 -120 -381 -161 -425 -22
-22 -36 -43 -33 -47 4 -4 49 -7 101 -7 75 0 93 3 93 15 0 8 -12 22 -26 32 -24
15 -26 21 -20 62 8 55 107 351 117 351 5 0 22 -43 39 -97 32 -100 31 -114 -13
-106 -34 7 -77 -14 -77 -37 0 -22 19 -29 99 -32 l54 -3 13 -45 c19 -63 18 -69
-16 -88 -16 -9 -30 -25 -30 -35 0 -16 12 -17 153 -15 107 2 152 6 152 15 0 6
-20 26 -44 45 -43 33 -44 34 -137 306 -51 151 -98 280 -105 288 -15 18 -83 18
-98 0z"/>
<path d="M3013 936 c-34 -8 -71 -19 -82 -26 -29 -15 -26 -44 4 -58 l25 -12 0
-225 c0 -217 -1 -226 -22 -247 -46 -46 23 -77 187 -85 87 -4 123 -2 170 12
161 46 244 171 233 350 -9 139 -65 228 -177 278 -59 27 -244 34 -338 13z m222
-57 c22 -6 55 -25 72 -42 52 -49 68 -105 68 -232 0 -121 -14 -162 -72 -217
-32 -30 -103 -52 -136 -42 -57 17 -57 18 -57 269 0 264 -2 256 80 274 3 0 23
-4 45 -10z"/>
<path d="M7127 943 c-13 -12 -7 -23 23 -38 l30 -16 0 -274 0 -274 -31 -16
c-57 -30 -31 -40 109 -43 110 -2 132 0 132 12 0 8 -14 24 -30 36 l-31 22 3
131 3 132 100 0 100 0 3 -138 3 -137 -26 -12 c-14 -6 -25 -19 -25 -30 0 -17
10 -18 130 -18 117 0 130 2 130 18 0 9 -14 25 -30 34 l-30 17 0 266 0 266 30
17 c16 9 30 25 30 35 0 15 -13 17 -130 17 -120 0 -130 -1 -130 -18 0 -11 11
-24 25 -30 25 -12 26 -14 23 -109 l-3 -98 -100 0 -100 0 -3 92 -3 91 31 22
c59 42 43 50 -98 50 -71 0 -132 -3 -135 -7z"/>
<path d="M5505 821 c-4 -7 -33 -8 -79 -5 -58 5 -80 3 -110 -11 -71 -34 -96
-116 -56 -182 10 -17 59 -59 108 -92 97 -65 123 -101 106 -149 -20 -57 -110
-54 -175 5 -52 47 -65 36 -50 -38 16 -75 25 -87 51 -71 14 8 44 10 103 6 69
-6 90 -4 121 11 55 26 78 68 73 132 -5 68 -40 118 -120 174 -87 59 -117 89
-117 116 0 25 26 43 63 43 14 0 48 -16 77 -36 31 -21 56 -32 61 -27 5 5 3 30
-6 60 -16 53 -38 82 -50 64z"/>
<path d="M1787 814 c-3 -3 -46 -7 -96 -8 -84 -1 -91 -3 -128 -32 -21 -17 -49
-53 -63 -80 -22 -42 -25 -61 -25 -149 0 -88 3 -107 26 -150 38 -74 92 -108
179 -113 57 -4 77 0 124 21 36 17 60 35 68 52 21 47 -2 50 -79 9 -65 -33 -73
-35 -106 -25 -70 23 -96 82 -96 216 0 111 20 171 66 198 40 23 86 13 140 -32
51 -42 67 -41 60 4 -11 67 -46 112 -70 89z"/>
<path d="M4677 814 c-3 -3 -46 -7 -95 -8 -78 -1 -93 -4 -129 -28 -107 -71
-136 -292 -53 -406 45 -63 85 -86 158 -90 98 -7 202 42 202 94 0 31 -15 30
-70 -6 -59 -39 -91 -45 -134 -25 -118 56 -111 389 9 419 30 8 79 -11 121 -47
41 -35 54 -34 54 3 0 61 -38 118 -63 94z"/>
<path d="M8855 813 c-51 -10 -105 -36 -105 -49 0 -8 4 -14 9 -14 5 0 17 -7 25
-16 13 -13 16 -44 16 -188 0 -161 -2 -175 -21 -200 -16 -21 -18 -30 -9 -41 18
-22 116 -38 210 -33 70 3 94 9 138 33 97 52 137 135 130 264 -7 124 -62 203
-167 239 -32 11 -182 15 -226 5z m175 -59 c63 -25 93 -85 98 -196 4 -80 2 -93
-23 -144 -23 -47 -35 -60 -72 -76 -48 -21 -81 -19 -107 8 -13 13 -16 45 -16
197 0 100 4 187 8 193 9 14 43 33 59 34 7 0 31 -7 53 -16z"/>
<path d="M1022 793 c-70 -16 -89 -38 -54 -61 21 -14 22 -20 22 -207 l0 -193
-25 -16 c-14 -9 -23 -21 -20 -26 8 -13 215 -13 215 0 0 5 -11 17 -25 26 l-25
16 0 192 c0 105 4 196 8 202 13 19 52 35 72 29 33 -10 60 -54 60 -97 0 -53
-13 -74 -60 -98 -24 -12 -40 -28 -40 -38 0 -22 71 -144 116 -199 l35 -43 69 0
c38 0 71 4 74 9 3 4 -23 33 -58 64 -38 34 -74 77 -91 110 l-29 55 52 49 c48
45 52 53 52 94 0 59 -30 105 -83 129 -52 24 -172 25 -265 3z"/>
<path d="M1910 797 c0 -8 11 -19 25 -25 l25 -12 0 -215 0 -215 -25 -12 c-14
-6 -25 -17 -25 -25 0 -10 24 -13 105 -13 86 0 105 3 105 15 0 8 -9 19 -20 25
-19 10 -20 19 -18 118 l3 107 68 3 c42 2 74 -2 83 -9 21 -17 20 -192 -2 -213
-8 -9 -20 -16 -25 -16 -5 0 -9 -7 -9 -15 0 -12 18 -15 105 -15 87 0 105 3 105
15 0 8 -4 15 -9 15 -5 0 -17 7 -25 16 -24 23 -24 415 0 438 8 9 20 16 25 16 5
0 9 7 9 15 0 12 -18 15 -105 15 -112 0 -125 -7 -80 -42 22 -17 25 -27 25 -81
0 -34 -4 -68 -9 -75 -5 -9 -29 -12 -82 -10 l-74 3 -3 77 c-3 69 -1 78 18 88
11 6 20 17 20 25 0 12 -19 15 -105 15 -81 0 -105 -3 -105 -13z"/>
<path d="M3560 797 c0 -8 11 -19 25 -25 l25 -12 0 -215 0 -215 -25 -12 c-14
-6 -25 -17 -25 -25 0 -10 24 -13 105 -13 78 0 105 3 105 13 0 7 -9 18 -20 25
-19 12 -20 23 -20 227 0 204 1 215 20 227 11 7 20 18 20 25 0 10 -27 13 -105
13 -81 0 -105 -3 -105 -13z"/>
<path d="M3944 786 c-91 -42 -133 -121 -133 -246 0 -125 42 -204 133 -246 65
-30 171 -33 231 -5 46 20 100 78 123 130 21 49 21 193 0 242 -23 52 -77 110
-123 130 -60 28 -166 25 -231 -5z m186 -54 c47 -34 65 -87 65 -192 -1 -79 -4
-102 -23 -137 -28 -53 -64 -78 -113 -78 -47 0 -91 39 -115 101 -23 60 -17 205
12 258 37 72 112 92 174 48z"/>
<path d="M4790 800 c0 -5 11 -17 25 -26 l25 -16 0 -213 0 -213 -25 -16 c-14
-9 -23 -21 -20 -26 4 -6 82 -10 186 -10 l179 0 20 32 c22 37 26 78 8 78 -7 0
-24 -12 -39 -26 -28 -27 -113 -43 -163 -30 -26 6 -26 7 -26 111 0 117 -4 111
85 117 35 3 40 6 40 28 0 22 -5 25 -40 28 -84 5 -85 6 -85 72 0 54 3 62 24 71
34 16 107 3 146 -26 38 -28 54 -24 45 14 -15 59 -22 61 -212 61 -106 0 -173
-4 -173 -10z"/>
<path d="M5820 788 c-5 -13 -38 -115 -74 -228 -54 -170 -70 -210 -96 -235 -16
-16 -30 -32 -30 -37 0 -4 36 -8 80 -8 83 0 102 12 60 38 -11 7 -20 21 -20 33
0 24 90 302 96 296 5 -5 54 -148 54 -159 0 -4 -20 -8 -44 -8 -28 0 -46 -5 -49
-14 -9 -23 15 -36 68 -36 51 0 52 0 63 -39 17 -53 15 -60 -13 -73 -14 -6 -25
-17 -25 -25 0 -10 40 -13 200 -13 110 1 202 5 205 10 3 5 -6 17 -20 26 -25 16
-25 17 -25 171 l0 155 46 -54 c25 -29 89 -113 142 -186 144 -198 158 -182 146
170 l-7 187 27 12 c14 7 26 18 26 26 0 10 -19 13 -74 13 -82 0 -100 -10 -61
-36 25 -16 25 -19 25 -141 0 -111 -2 -124 -15 -113 -9 7 -63 75 -121 151
l-105 139 -69 0 c-56 0 -70 -3 -70 -15 0 -8 4 -15 9 -15 5 0 17 -7 25 -16 14
-13 16 -47 16 -217 0 -111 -4 -207 -8 -213 -4 -6 -16 -16 -27 -22 -17 -9 -27
-5 -58 21 -33 29 -43 52 -108 242 -39 116 -76 216 -81 223 -6 6 -26 12 -44 12
-26 0 -37 -5 -44 -22z"/>
<path d="M7790 797 c0 -7 9 -18 20 -25 19 -12 20 -23 20 -227 0 -204 -1 -215
-20 -227 -11 -7 -20 -19 -20 -26 0 -10 39 -12 182 -10 l182 3 23 40 c39 69 21
88 -37 38 -34 -28 -113 -42 -165 -29 -25 6 -25 8 -25 106 0 68 4 101 13 107 6
4 35 10 62 13 45 5 50 7 50 30 0 22 -5 25 -40 28 -84 5 -85 6 -85 72 0 50 3
61 21 71 31 16 106 3 151 -26 34 -22 39 -24 45 -9 3 9 -1 31 -10 50 l-17 34
-175 0 c-134 0 -175 -3 -175 -13z"/>
<path d="M8423 798 c-6 -7 -38 -103 -72 -212 -67 -214 -78 -241 -110 -270 -12
-11 -21 -23 -21 -28 0 -4 34 -8 75 -8 59 0 75 3 75 15 0 8 -9 19 -21 25 -16 9
-19 17 -14 43 11 55 88 277 96 277 9 0 49 -116 49 -141 0 -14 -10 -19 -42 -21
-35 -2 -43 -7 -43 -23 0 -17 8 -21 59 -25 l59 -5 13 -43 c12 -41 11 -44 -12
-59 -13 -8 -24 -22 -24 -29 0 -11 24 -14 120 -14 132 0 145 7 87 47 -29 20
-40 45 -112 250 l-80 228 -36 3 c-21 2 -40 -2 -46 -10z"/>
<path d="M9423 789 c-133 -66 -181 -241 -106 -388 46 -89 139 -147 172 -107
10 12 5 25 -28 66 -45 57 -61 102 -61 172 0 120 39 198 110 219 54 16 106 -10
140 -71 21 -39 25 -58 25 -135 0 -150 -36 -208 -189 -305 -71 -45 -90 -67 -76
-90 7 -12 17 -10 60 10 45 21 55 23 83 11 103 -41 115 -44 150 -37 43 8 107
64 107 95 0 26 -15 27 -47 1 -31 -24 -52 -24 -117 -1 l-49 17 46 27 c58 34
102 78 130 131 32 61 32 211 -1 279 -28 55 -78 100 -131 116 -64 19 -170 14
-218 -10z"/>
<path d="M9830 795 c0 -8 4 -15 9 -15 5 0 17 -7 25 -16 13 -13 16 -45 16 -196
0 -201 4 -215 68 -258 55 -36 169 -40 232 -8 25 13 55 38 67 57 22 32 23 44
23 216 l0 183 25 16 c42 28 29 36 -55 36 -83 0 -102 -12 -60 -38 19 -11 20
-23 20 -195 0 -207 -4 -219 -70 -237 -46 -12 -101 5 -119 38 -7 13 -11 91 -11
201 0 170 1 182 20 193 11 7 20 18 20 25 0 10 -27 13 -105 13 -87 0 -105 -3
-105 -15z"/>
<path d="M10543 798 c-6 -7 -38 -103 -72 -212 -67 -214 -78 -241 -110 -270
-12 -11 -21 -23 -21 -28 0 -4 34 -8 75 -8 59 0 75 3 75 15 0 8 -9 19 -21 25
-16 9 -19 17 -14 43 11 55 88 277 96 277 9 0 49 -116 49 -141 0 -14 -10 -19
-42 -21 -35 -2 -43 -7 -43 -23 0 -17 8 -21 59 -25 l59 -5 13 -43 c12 -41 11
-44 -12 -59 -13 -8 -24 -22 -24 -29 0 -11 24 -14 120 -14 132 0 145 7 87 47
-29 20 -40 45 -112 250 l-80 228 -36 3 c-21 2 -40 -2 -46 -10z"/>
<path d="M10957 796 c-32 -7 -65 -20 -74 -28 -14 -15 -13 -18 11 -33 l26 -17
0 -194 0 -194 -25 -12 c-14 -6 -25 -17 -25 -25 0 -10 24 -13 104 -13 58 0 107
4 111 10 3 5 -6 17 -20 26 l-25 16 0 198 c0 211 0 212 51 225 36 9 78 -28 86
-77 8 -54 -12 -95 -58 -119 -28 -14 -39 -26 -39 -42 0 -25 63 -132 115 -194
l36 -43 69 0 c85 0 88 9 20 68 -59 51 -94 95 -115 144 l-15 37 36 22 c99 61
96 182 -6 236 -35 19 -58 23 -124 22 -45 0 -107 -6 -139 -13z"/>
<path d="M11399 766 c-13 -25 -19 -51 -15 -61 5 -15 12 -12 47 20 32 28 47 36
72 33 l32 -3 3 -212 c2 -204 2 -213 -18 -225 -11 -7 -20 -18 -20 -25 0 -10 27
-13 105 -13 87 0 105 3 105 15 0 8 -4 15 -9 15 -5 0 -17 7 -25 16 -23 22 -24
405 -1 424 20 16 70 4 102 -26 36 -33 57 -32 49 4 -4 15 -15 38 -25 52 -18 25
-19 25 -200 28 l-181 2 -21 -44z"/>
<path d="M11850 802 c0 -5 11 -18 25 -30 l25 -22 0 -210 0 -210 -25 -12 c-14
-6 -25 -17 -25 -25 0 -10 37 -13 185 -13 l185 0 20 40 c11 21 20 46 20 55 0
20 -24 19 -41 -2 -21 -25 -73 -43 -123 -43 -76 0 -76 -1 -76 115 0 115 0 115
75 115 44 0 60 15 49 45 -4 10 -20 15 -49 15 -71 0 -75 4 -75 76 0 60 2 64 25
70 41 10 106 -5 142 -32 24 -18 34 -21 40 -12 11 18 4 50 -14 71 -14 15 -37
17 -190 17 -95 0 -173 -4 -173 -8z"/>
<path d="M12388 796 c-53 -11 -88 -29 -88 -46 0 -4 11 -12 25 -18 l25 -12 0
-189 c0 -159 -3 -192 -16 -205 -8 -9 -20 -16 -25 -16 -5 0 -9 -7 -9 -15 0 -12
18 -15 105 -15 86 0 105 3 105 15 0 8 -9 19 -20 25 -19 10 -20 21 -20 209 0
219 1 224 62 224 37 0 64 -29 74 -78 8 -45 -12 -83 -63 -118 l-43 -28 16 -37
c20 -50 72 -129 113 -174 32 -37 35 -38 102 -38 82 0 89 13 28 55 -46 33 -87
82 -118 142 -11 23 -21 44 -21 46 0 3 18 16 41 31 97 65 85 187 -25 237 -48
22 -159 24 -248 5z"/>
</g>
</svg>
